# xmcd
#
# Track frame offsets:
#	150
#	3957
#	23912
#	47217
#	83882
#	108627
#
# Disc length: 1622 seconds
#
# Revision: 0
# Processed by: cddbd v1.5.2PL0 Copyright (c) Steve Scherf et al.
# Submitted via: EasyCDDAExtractor 11.5.3.1
#
DISCID=42065406
DTITLE=Guineapig - Taken Below Mixes
DYEAR=1993
DGENRE=
TTITLE0=I Feel
TTITLE1=Taken Below
TTITLE2=Taken Below - Settled In Silence
TTITLE3=When Things Aren't Settled
TTITLE4=Taken Below - 12"
TTITLE5=No Shame
EXTD=
EXTT0=
EXTT1=
EXTT2=
EXTT3=
EXTT4=
EXTT5=
PLAYORDER=
